HIERARCHY
ROOT Hips
{
	OFFSET 0.0000 0.0000 0.0000
	CHANNELS 6 Xposition Yposition Zposition Zrotation Xrotation Yrotation
	JOINT Ab
	{
		OFFSET -0.0000 8.1305 -0.0000
		CHANNELS 3 Zrotation Xrotation Yrotation
		JOINT Chest
		{
			OFFSET -0.0000 26.2902 -0.0000
			CHANNELS 3 Zrotation Xrotation Yrotation
			JOINT Neck
			{
				OFFSET -0.0000 26.2902 0.0000
				CHANNELS 3 Zrotation Xrotation Yrotation
				JOINT Head
				{
					OFFSET -0.0000 10.8167 0.0000
					CHANNELS 3 Zrotation Xrotation Yrotation
					End Site
					{
						OFFSET -0.0000 16.7167 0.0000
					}
				}
			}
			JOINT LeftCollar
			{
				OFFSET -0.0000 26.2902 0.0000
				CHANNELS 3 Zrotation Xrotation Yrotation
				JOINT LeftShoulder
				{
					OFFSET 19.6667 -0.0000 0.0000
					CHANNELS 3 Zrotation Xrotation Yrotation
					JOINT LeftElbow
					{
						OFFSET 27.2190 0.0000 0.0000
						CHANNELS 3 Zrotation Xrotation Yrotation
						JOINT LeftWrist
						{
							OFFSET 30.7431 0.0000 0.0000
							CHANNELS 3 Zrotation Xrotation Yrotation
							End Site
							{
								OFFSET 0.0000 -14.7500 0.0000
							}
						}
					}
				}
			}
			JOINT RightCollar
			{
				OFFSET -0.0000 26.2902 0.0000
				CHANNELS 3 Zrotation Xrotation Yrotation
				JOINT RightShoulder
				{
					OFFSET -19.6667 0.0000 0.0000
					CHANNELS 3 Zrotation Xrotation Yrotation
					JOINT RightElbow
					{
						OFFSET -27.2190 0.0000 0.0000
						CHANNELS 3 Zrotation Xrotation Yrotation
						JOINT RightWrist
						{
							OFFSET -30.7431 0.0000 0.0000
							CHANNELS 3 Zrotation Xrotation Yrotation
							End Site
							{
								OFFSET -0.0000 -14.7500 0.0000
							}
						}
					}
				}
			}
		}
	}
	JOINT LeftHip
	{
		OFFSET 11.8000 0.0000 0.0000
		CHANNELS 3 Zrotation Xrotation Yrotation
		JOINT LeftKnee
		{
			OFFSET -0.0000 -39.7832 0.0000
			CHANNELS 3 Zrotation Xrotation Yrotation
			JOINT LeftAnkle
			{
				OFFSET -0.0000 -41.7317 0.0000
				CHANNELS 3 Zrotation Xrotation Yrotation
				End Site
				{
					OFFSET -0.0000 -4.9167 16.7167
				}
			}
		}
	}
	JOINT RightHip
	{
		OFFSET -11.8000 0.0000 0.0000
		CHANNELS 3 Zrotation Xrotation Yrotation
		JOINT RightKnee
		{
			OFFSET -0.0000 -39.7832 0.0000
			CHANNELS 3 Zrotation Xrotation Yrotation
			JOINT RightAnkle
			{
				OFFSET -0.0000 -41.7317 0.0000
				CHANNELS 3 Zrotation Xrotation Yrotation
				End Site
				{
					OFFSET -0.0000 -4.9167 16.7167
				}
			}
		}
	}
}
MOTION
Frames: 8
Frame Time: 0.010000
-17.5629 96.9826 176.0646 358.0728 357.7986 178.0017 357.7739 348.0831 0.1769 1.7799 8.3625 0.2912 0.5712 357.1555 0.7257 353.7350 2.5379 0.8485 338.7580 357.3708 14.0280 317.6973 56.8665 341.1089 8.7928 357.5778 329.0948 85.3515 357.5797 345.8544 27.8499 355.9030 343.6110 46.6885 43.9883 1.9276 341.7167 354.9468 30.7319 271.4363 354.7725 11.9573 356.6342 3.8260 358.2464 357.8536 6.8238 4.7320 354.6985 350.8719 16.3593 357.9819 7.5600 10.0501 5.8067 4.1400 9.0875 349.0058 345.0017 314.6301 
-17.5738 96.9798 176.0625 358.0706 357.7752 178.0097 357.7758 348.0819 0.1916 1.7894 8.3626 0.2721 0.5249 357.1542 0.7461 353.7777 2.5479 0.8698 338.7583 357.3574 14.0564 317.6600 56.8749 341.1210 8.8283 357.5515 329.0895 85.3593 357.5908 345.8638 27.8508 355.9109 343.6252 46.6523 44.0036 1.9453 341.7320 354.9425 30.7117 271.4439 354.8017 11.9830 356.6258 3.7671 358.2353 357.8451 6.8954 4.7188 354.7736 350.8452 16.3606 357.9694 7.5412 10.0622 5.8121 4.1355 9.0868 348.9821 345.0166 314.6233 
-17.5872 96.9782 176.0557 358.0716 357.7624 178.0246 357.7749 348.0850 0.1802 1.7909 8.3722 0.2777 0.5691 357.1351 0.7381 353.7228 2.5805 0.8627 338.7652 357.3609 14.0487 317.6486 56.8875 341.1136 8.8198 357.5617 329.0929 85.3581 357.5957 345.8693 27.8496 355.9083 343.6146 46.6523 43.9665 1.9480 341.7027 354.9295 30.7557 271.4563 354.9515 11.8811 356.6211 3.7211 358.2043 357.8309 6.9693 4.7167 354.7412 350.7700 16.4530 357.9601 7.5404 10.0637 5.8172 4.1235 9.0595 348.9791 345.0191 314.6365 
-17.6001 96.9752 176.0506 358.0723 357.7417 178.0416 357.7745 348.0841 0.1789 1.7910 8.3760 0.2720 0.5849 357.1262 0.7365 353.7060 2.6015 0.8624 338.7750 357.3555 14.0520 317.6407 56.9118 341.0956 8.8471 357.5509 329.1083 85.3181 357.5888 345.8676 27.8470 355.9068 343.6164 46.6605 43.9492 1.9391 341.6983 354.9289 30.7631 271.4518 354.9625 11.8493 356.6183 3.6573 358.1780 357.8192 7.0594 4.6794 354.7513 350.7005 16.5099 357.9503 7.5311 10.0690 5.8249 4.1142 9.0511 348.9701 345.0221 314.6250 
-17.6131 96.9710 176.0473 358.0754 357.7153 178.0518 357.7752 348.0805 0.1725 1.7943 8.3812 0.2798 0.6320 357.1230 0.7370 353.6519 2.6091 0.8637 338.7809 357.3433 14.0582 317.6459 56.9407 341.0724 8.8626 357.5403 329.1180 85.3506 357.5847 345.9182 27.8425 355.9178 343.6146 46.6633 43.9383 1.9399 341.6981 354.9235 30.7739 271.5951 354.9169 11.6418 356.6182 3.5838 358.1691 357.8053 7.1557 4.6439 354.7550 350.6476 16.5514 357.9443 7.5126 10.0668 5.8297 4.1049 9.0304 348.9853 344.9970 314.6307 
-17.6302 96.9677 176.0432 358.0759 357.6934 178.0601 357.7147 348.1681 0.2184 1.8960 8.2240 0.3103 0.5161 357.1810 0.7543 353.8662 2.6075 0.8790 338.7226 357.3477 14.0419 317.5916 56.9881 341.1833 8.8164 357.5549 329.1267 85.2189 357.5731 345.8058 27.7999 355.9147 343.5657 46.6994 43.9684 1.8758 341.6531 354.9187 30.7768 271.6377 354.8166 11.2755 356.6116 3.5196 358.1389 357.7905 7.2504 4.6275 354.7841 350.5921 16.5667 357.9317 7.4954 10.0289 5.8347 4.1063 9.0472 348.9939 344.9892 314.6383 
-17.6477 96.9650 176.0354 358.0767 357.6746 178.0662 357.7197 348.1693 0.2182 1.8845 8.2383 0.3141 0.5370 357.1467 0.7228 353.8600 2.6477 0.8489 338.7300 357.3603 14.0149 317.6281 57.0069 341.1358 8.8399 357.5439 329.1409 85.0298 357.5623 345.7033 27.7962 355.9010 343.5280 46.7172 43.9652 1.8762 341.6536 354.9194 30.7710 271.6266 354.8181 11.2857 356.6032 3.4642 358.1092 357.7760 7.3321 4.6201 354.8196 350.5426 16.5916 357.9179 7.4862 10.0275 5.8417 4.1004 9.0320 349.0200 344.9707 314.6363 
-17.6660 96.9604 176.0284 358.0838 357.6557 178.0682 357.7311 348.1755 0.2266 1.8863 8.2476 0.3202 0.5411 357.1239 0.7177 353.8568 2.6801 0.8464 338.7320 357.3607 14.0142 317.6109 57.0123 341.1359 8.8730 357.5315 329.1264 85.0748 357.5784 345.7623 27.7903 355.9042 343.5298 46.7193 43.9656 1.8649 341.6859 354.9195 30.7791 271.5513 354.8041 11.2948 356.5992 3.4030 358.0869 357.7631 7.4218 4.6160 354.8488 350.4918 16.6102 357.9093 7.4709 10.0369 5.8492 4.1002 9.0093 349.0509 344.9476 314.6457 
